# xmcd
#
# Track frame offsets:
#	150
#	14662
#	25581
#	38173
#	51153
#	63224
#	79173
#	91672
#	106123
#	121159
#	132246
#	150358
#	161179
#	173509
#
# Disc length: 2568 seconds
#
# Revision: 0
# Processed by: cddbd v1.5.1PL0 Copyright (c) Steve Scherf et al.
# Submitted via: EasyCDDAExtractor 4.6.9.1
#
DISCID=9d0a060e
DTITLE=Williams and Clark Expedition - The Old Kentucky Road
DYEAR=2004
DGENRE=Bluegrass
TTITLE0=The Old Kentucky Road
TTITLE1=Get Gone Blues
TTITLE2=Pleasant Hill
TTITLE3=Too Late
TTITLE4=Washington County
TTITLE5=Sad Is The Union
TTITLE6=Over In The Glory Land
TTITLE7=Wib's Tobacco Reel
TTITLE8=Windy City
TTITLE9=Hot Pursuit
TTITLE10=Grey Ashes
TTITLE11=I'll Love Until The Day I Die
TTITLE12=Graduation Prayer
TTITLE13=Bonus Comedy Track
EXTD=
EXTT0=
EXTT1=
EXTT2=
EXTT3=
EXTT4=
EXTT5=
EXTT6=
EXTT7=
EXTT8=
EXTT9=
EXTT10=
EXTT11=
EXTT12=
EXTT13=
PLAYORDER=
